<?xml version="1.0" encoding="utf-8"?>
<!-- Generator: Adobe Illustrator 18.1.1, SVG Export Plug-In . SVG Version: 6.00 Build 0)  -->
<svg version="1.1" id="Layer_1" xmlns="http://www.w3.org/2000/svg" xmlns:xlink="http://www.w3.org/1999/xlink" x="0px" y="0px"
	 viewBox="0 0 372 374" enable-background="new 0 0 372 374" xml:space="preserve">
<g>
	<g>
		<path d="M321.2,78c-8.3-10.5-17.8-20-28.3-28.3c-29.4-23.3-66.6-37.3-107-37.3S108.5,26.4,79,49.8c-10.5,8.3-20,17.8-28.3,28.3
			c-23.3,29.4-37.3,66.6-37.3,107s13.9,77.5,37.3,107c8.3,10.5,17.8,20,28.3,28.3c29.4,23.3,66.6,37.3,107,37.3s77.5-13.9,107-37.3
			c10.5-8.3,20-17.8,28.3-28.3c23.3-29.4,37.3-66.6,37.3-107S344.6,107.5,321.2,78z M264.4,291.7c-22,16.2-49.1,25.8-78.4,25.8
			s-56.5-9.6-78.4-25.8c-10.8-7.9-20.3-17.5-28.3-28.3c-16.2-22-25.8-49.1-25.8-78.4c0-29.3,9.6-56.5,25.8-78.4
			c7.9-10.8,17.5-20.3,28.3-28.3c22-16.2,49.1-25.8,78.4-25.8s56.5,9.6,78.4,25.8c10.8,7.9,20.3,17.5,28.3,28.3
			c16.2,22,25.8,49.1,25.8,78.4c0,29.3-9.6,56.5-25.8,78.4C284.8,274.2,275.2,283.8,264.4,291.7z"/>
	</g>
	<g>
		<path d="M277.5,185c0,18-5.2,34.8-14.2,49c-7.2,11.4-16.9,21.1-28.3,28.3l-29.6-29.6c12.8-5.2,23.1-15.5,28.3-28.3
			c2.5-6,3.8-12.5,3.8-19.4s-1.3-13.4-3.8-19.4L214.3,185L186,213.3L157.7,185l-19.4-19.4c-2.5,6-3.8,12.5-3.8,19.4
			s1.3,13.4,3.8,19.4c5.2,12.8,15.5,23.1,28.3,28.3L137,262.2c-11.4-7.2-21-16.9-28.3-28.3c-9-14.2-14.2-31-14.2-49
			s5.2-34.8,14.2-49c7.2-11.4,16.9-21,28.3-28.3l14.6,14.6l15,15l19.4,19.4l19.4-19.4l15-15l14.6-14.6c11.4,7.2,21,16.9,28.3,28.3
			C272.3,150.2,277.5,167,277.5,185z"/>
	</g>
</g>
</svg>
